<svg width="899" height="199" viewBox="0 0 899 199" fill="none" xmlns="http://www.w3.org/2000/svg">
<g filter="url(#filter0_bii_418_135)">
<path d="M13.226 149V147.02H22.037V12.38H19.463C15.767 12.38 12.599 13.865 9.959 16.835C7.385 19.805 5.438 23.666 4.118 28.418C2.798 33.104 2.138 38.12 2.138 43.466H0.158V10.4H67.676V43.466H65.696C65.696 38.12 65.036 33.104 63.716 28.418C62.396 23.666 60.449 19.805 57.875 16.835C55.301 13.865 52.133 12.38 48.371 12.38H45.797V147.02H55.103V149H13.226ZM75.0639 149V147.02H83.6769V2.48H75.0639V0.499988H107.437V58.514C107.833 56.798 108.592 54.851 109.714 52.673C110.836 50.495 112.552 48.614 114.862 47.03C117.238 45.446 120.406 44.654 124.366 44.654C128.524 44.654 132.286 45.611 135.652 47.525C139.018 49.439 141.691 52.772 143.671 57.524C145.651 62.21 146.641 68.777 146.641 77.225V147.02H154.858V149H116.446V147.02H122.881V78.413C122.881 68.381 122.518 60.89 121.792 55.94C121.132 50.99 119.647 48.515 117.337 48.515C115.753 48.515 114.235 49.505 112.783 51.485C111.331 53.465 110.11 55.973 109.12 59.009C108.196 61.979 107.635 65.015 107.437 68.117V147.02H113.872V149H75.0639ZM194.585 150.98C189.305 150.98 184.586 149.594 180.428 146.822C176.336 144.05 172.871 140.222 170.033 135.338C167.195 130.388 165.05 124.646 163.598 118.112C162.146 111.512 161.42 104.417 161.42 96.827C161.42 87.455 162.41 79.469 164.39 72.869C166.37 66.203 168.977 60.824 172.211 56.732C175.445 52.574 178.91 49.538 182.606 47.624C186.368 45.71 189.998 44.753 193.496 44.753C197.786 44.753 201.746 45.842 205.376 48.02C209.072 50.132 212.273 53.201 214.979 57.227C217.751 61.187 219.896 65.939 221.414 71.483C222.998 76.961 223.79 83.033 223.79 89.699C223.79 90.887 223.757 92.108 223.691 93.362C223.691 94.55 223.625 95.771 223.493 97.025H183.596V95.045H200.327C200.327 84.419 200.129 75.509 199.733 68.315C199.337 61.121 198.644 55.709 197.654 52.079C196.664 48.449 195.278 46.634 193.496 46.634C191.78 46.634 190.295 48.449 189.041 52.079C187.853 55.643 186.929 61.121 186.269 68.513C185.609 75.905 185.279 85.376 185.279 96.926C185.279 104.714 185.411 111.776 185.675 118.112C185.939 124.448 186.467 129.893 187.259 134.447C188.117 139.001 189.437 142.499 191.219 144.941C193.001 147.383 195.443 148.604 198.545 148.604C204.485 148.604 209.237 147.251 212.801 144.545C216.365 141.773 218.741 138.77 219.929 135.536L221.513 136.724C219.929 140.486 216.959 143.819 212.603 146.723C208.313 149.561 202.307 150.98 194.585 150.98ZM265.523 149V147.02H274.829V12.38H265.523V10.4H303.737C310.271 10.4 316.277 12.974 321.755 18.122C327.233 23.204 331.622 30.794 334.922 40.892C338.288 50.924 339.971 63.497 339.971 78.611C339.971 93.791 338.288 106.628 334.922 117.122C331.556 127.55 327.134 135.47 321.656 140.882C316.178 146.294 310.205 149 303.737 149H265.523ZM298.787 147.02H302.153C304.727 147.02 306.971 144.413 308.885 139.199C310.799 133.985 312.284 126.296 313.34 116.132C314.462 105.968 315.023 93.461 315.023 78.611C315.023 64.949 314.495 53.201 313.439 43.367C312.449 33.467 311.063 25.844 309.281 20.498C307.565 15.086 305.519 12.38 303.143 12.38H298.787V147.02ZM372.729 151.079C368.505 151.079 364.71 150.155 361.344 148.307C357.978 146.459 355.305 143.687 353.325 139.991C351.411 136.229 350.454 131.609 350.454 126.131C350.454 119.663 351.741 114.416 354.315 110.39C356.889 106.298 360.057 102.899 363.819 100.193C367.581 97.487 371.343 95.111 375.105 93.065C378.933 90.953 382.101 88.742 384.609 86.432C387.183 84.056 388.47 81.119 388.47 77.621C388.47 72.803 388.206 68.051 387.678 63.365C387.15 58.679 386.094 54.818 384.51 51.782C382.926 48.746 380.517 47.228 377.283 47.228C374.511 47.228 371.937 48.218 369.561 50.198C367.251 52.112 366.096 54.785 366.096 58.217C366.096 59.933 366.459 61.517 367.185 62.969C367.977 64.421 368.736 65.939 369.462 67.523C370.188 69.107 370.551 71.021 370.551 73.265C370.551 76.697 369.726 79.502 368.076 81.68C366.492 83.792 364.182 84.848 361.146 84.848C358.176 84.848 355.866 83.627 354.216 81.185C352.632 78.677 351.84 75.311 351.84 71.087C351.84 66.071 353.127 61.583 355.701 57.623C358.341 53.663 361.971 50.528 366.591 48.218C371.211 45.908 376.392 44.753 382.134 44.753C387.216 44.753 392.034 45.875 396.588 48.119C401.208 50.363 404.97 54.059 407.874 59.207C410.778 64.289 412.23 71.12 412.23 79.7V138.605C412.23 141.575 412.593 143.786 413.319 145.238C414.111 146.624 415.167 147.317 416.487 147.317C417.345 147.317 418.236 147.086 419.16 146.624C420.15 146.096 420.876 145.601 421.338 145.139L422.427 146.921C421.833 147.647 420.315 148.439 417.873 149.297C415.431 150.221 412.197 150.683 408.171 150.683C405.069 150.683 402.066 150.254 399.162 149.396C396.324 148.538 393.981 147.152 392.133 145.238C390.351 143.324 389.427 140.816 389.361 137.714C389.163 139.43 388.503 141.344 387.381 143.456C386.259 145.502 384.543 147.284 382.233 148.802C379.923 150.32 376.755 151.079 372.729 151.079ZM381.54 144.644C382.86 144.644 384.015 144.083 385.005 142.961C386.061 141.839 386.886 140.486 387.48 138.902C388.14 137.318 388.47 135.8 388.47 134.348V83.66C388.272 85.508 387.447 87.554 385.995 89.798C384.609 91.976 383.025 94.583 381.243 97.619C379.461 100.589 377.91 104.12 376.59 108.212C375.27 112.304 374.61 117.155 374.61 122.765C374.61 129.629 375.072 135.008 375.996 138.902C376.92 142.73 378.768 144.644 381.54 144.644ZM439.549 198.698C437.173 198.698 434.797 197.51 432.421 195.134C430.045 192.824 428.065 189.689 426.481 185.729C424.963 181.835 424.204 177.446 424.204 172.562C424.204 168.272 425.029 165.005 426.679 162.761C428.395 160.517 430.606 159.395 433.312 159.395C436.15 159.395 438.361 160.616 439.945 163.058C441.529 165.5 442.321 168.47 442.321 171.968C442.321 174.674 441.793 176.984 440.737 178.898C439.747 180.812 438.724 182.627 437.668 184.343C436.678 186.059 436.183 188.039 436.183 190.283C436.183 192.527 436.546 194.111 437.272 195.035C437.998 196.025 438.988 196.52 440.242 196.52C441.43 196.52 442.42 195.926 443.212 194.738C444.004 193.616 444.664 192.131 445.192 190.283C445.786 188.501 446.281 186.62 446.677 184.64L453.31 153.059L426.481 47.327H418.363V45.347H458.359V47.327H450.736L464.893 105.143L477.763 47.327H470.833V45.347H487.663V47.327H479.941L456.478 149.693L448.558 185.927C448.096 188.171 447.502 190.283 446.776 192.263C446.05 194.243 445.126 195.794 444.004 196.916C442.882 198.104 441.397 198.698 439.549 198.698ZM518.067 150.98C513.183 150.98 508.695 149.363 504.603 146.129C500.511 142.895 497.178 137.417 494.604 129.695C492.096 121.907 490.842 111.248 490.842 97.718C490.842 85.112 492.063 74.915 494.505 67.127C496.947 59.339 500.115 53.663 504.009 50.099C507.969 46.535 512.16 44.753 516.582 44.753C520.08 44.753 522.786 45.776 524.7 47.822C526.68 49.802 528.099 51.947 528.957 54.257C529.881 56.501 530.442 58.085 530.64 59.009V2.57899H521.532V0.499988H554.895V147.02H565.092V149H531.135V137.12C530.937 138.44 530.376 140.222 529.452 142.466C528.594 144.644 527.241 146.624 525.393 148.406C523.611 150.122 521.169 150.98 518.067 150.98ZM521.631 147.812C523.149 147.812 524.568 146.921 525.888 145.139C527.208 143.291 528.297 140.849 529.155 137.813C530.013 134.777 530.508 131.444 530.64 127.814V68.909C530.442 65.675 529.848 62.54 528.858 59.504C527.934 56.402 526.812 53.861 525.492 51.881C524.238 49.835 522.918 48.812 521.532 48.812C520.146 48.812 519.024 50.297 518.166 53.267C517.374 56.171 516.78 60.065 516.384 64.949C515.988 69.767 515.724 75.08 515.592 80.888C515.46 86.63 515.394 92.339 515.394 98.015C515.394 104.153 515.46 110.192 515.592 116.132C515.724 122.006 515.988 127.319 516.384 132.071C516.846 136.823 517.473 140.651 518.265 143.555C519.123 146.393 520.245 147.812 521.631 147.812ZM568.008 149V147.02H576.621V47.327H568.008V45.347H600.381V57.623C600.645 56.501 601.338 54.917 602.46 52.871C603.582 50.825 605.1 48.977 607.014 47.327C608.994 45.611 611.271 44.753 613.845 44.753C617.343 44.753 620.379 45.974 622.953 48.416C625.527 50.792 627.54 54.026 628.992 58.118C630.51 62.144 631.269 66.632 631.269 71.582C631.269 75.806 630.444 79.073 628.794 81.383C627.21 83.693 624.966 84.848 622.062 84.848C619.29 84.848 617.112 83.726 615.528 81.482C613.944 79.238 613.152 76.433 613.152 73.067C613.152 70.757 613.614 68.612 614.538 66.632C615.462 64.652 616.353 62.771 617.211 60.989C618.135 59.141 618.597 57.326 618.597 55.544C618.597 52.772 618.102 50.66 617.112 49.208C616.188 47.69 614.703 46.931 612.657 46.931C610.413 46.931 608.367 48.086 606.519 50.396C604.671 52.706 603.186 55.643 602.064 59.207C600.942 62.771 600.381 66.467 600.381 70.295V147.02H609.39V149H568.008ZM670.442 150.98C665.162 150.98 660.443 149.594 656.285 146.822C652.193 144.05 648.728 140.222 645.89 135.338C643.052 130.388 640.907 124.646 639.455 118.112C638.003 111.512 637.277 104.417 637.277 96.827C637.277 87.455 638.267 79.469 640.247 72.869C642.227 66.203 644.834 60.824 648.068 56.732C651.302 52.574 654.767 49.538 658.463 47.624C662.225 45.71 665.855 44.753 669.353 44.753C673.643 44.753 677.603 45.842 681.233 48.02C684.929 50.132 688.13 53.201 690.836 57.227C693.608 61.187 695.753 65.939 697.271 71.483C698.855 76.961 699.647 83.033 699.647 89.699C699.647 90.887 699.614 92.108 699.548 93.362C699.548 94.55 699.482 95.771 699.35 97.025H659.453V95.045H676.184C676.184 84.419 675.986 75.509 675.59 68.315C675.194 61.121 674.501 55.709 673.511 52.079C672.521 48.449 671.135 46.634 669.353 46.634C667.637 46.634 666.152 48.449 664.898 52.079C663.71 55.643 662.786 61.121 662.126 68.513C661.466 75.905 661.136 85.376 661.136 96.926C661.136 104.714 661.268 111.776 661.532 118.112C661.796 124.448 662.324 129.893 663.116 134.447C663.974 139.001 665.294 142.499 667.076 144.941C668.858 147.383 671.3 148.604 674.402 148.604C680.342 148.604 685.094 147.251 688.658 144.545C692.222 141.773 694.598 138.77 695.786 135.536L697.37 136.724C695.786 140.486 692.816 143.819 688.46 146.723C684.17 149.561 678.164 150.98 670.442 150.98ZM731.217 151.079C726.993 151.079 723.198 150.155 719.832 148.307C716.466 146.459 713.793 143.687 711.813 139.991C709.899 136.229 708.942 131.609 708.942 126.131C708.942 119.663 710.229 114.416 712.803 110.39C715.377 106.298 718.545 102.899 722.307 100.193C726.069 97.487 729.831 95.111 733.593 93.065C737.421 90.953 740.589 88.742 743.097 86.432C745.671 84.056 746.958 81.119 746.958 77.621C746.958 72.803 746.694 68.051 746.166 63.365C745.638 58.679 744.582 54.818 742.998 51.782C741.414 48.746 739.005 47.228 735.771 47.228C732.999 47.228 730.425 48.218 728.049 50.198C725.739 52.112 724.584 54.785 724.584 58.217C724.584 59.933 724.947 61.517 725.673 62.969C726.465 64.421 727.224 65.939 727.95 67.523C728.676 69.107 729.039 71.021 729.039 73.265C729.039 76.697 728.214 79.502 726.564 81.68C724.98 83.792 722.67 84.848 719.634 84.848C716.664 84.848 714.354 83.627 712.704 81.185C711.12 78.677 710.328 75.311 710.328 71.087C710.328 66.071 711.615 61.583 714.189 57.623C716.829 53.663 720.459 50.528 725.079 48.218C729.699 45.908 734.88 44.753 740.622 44.753C745.704 44.753 750.522 45.875 755.076 48.119C759.696 50.363 763.458 54.059 766.362 59.207C769.266 64.289 770.718 71.12 770.718 79.7V138.605C770.718 141.575 771.081 143.786 771.807 145.238C772.599 146.624 773.655 147.317 774.975 147.317C775.833 147.317 776.724 147.086 777.648 146.624C778.638 146.096 779.364 145.601 779.826 145.139L780.915 146.921C780.321 147.647 778.803 148.439 776.361 149.297C773.919 150.221 770.685 150.683 766.659 150.683C763.557 150.683 760.554 150.254 757.65 149.396C754.812 148.538 752.469 147.152 750.621 145.238C748.839 143.324 747.915 140.816 747.849 137.714C747.651 139.43 746.991 141.344 745.869 143.456C744.747 145.502 743.031 147.284 740.721 148.802C738.411 150.32 735.243 151.079 731.217 151.079ZM740.028 144.644C741.348 144.644 742.503 144.083 743.493 142.961C744.549 141.839 745.374 140.486 745.968 138.902C746.628 137.318 746.958 135.8 746.958 134.348V83.66C746.76 85.508 745.935 87.554 744.483 89.798C743.097 91.976 741.513 94.583 739.731 97.619C737.949 100.589 736.398 104.12 735.078 108.212C733.758 112.304 733.098 117.155 733.098 122.765C733.098 129.629 733.56 135.008 734.484 138.902C735.408 142.73 737.256 144.644 740.028 144.644ZM784.391 149V147.02H791.618V47.327H784.391V45.347H815.378V60.296C815.972 57.92 816.797 55.544 817.853 53.168C818.975 50.792 820.658 48.812 822.902 47.228C825.212 45.578 828.446 44.753 832.604 44.753C836.432 44.753 839.765 45.611 842.603 47.327C845.507 49.043 847.784 51.419 849.434 54.455C851.084 57.491 851.975 61.055 852.107 65.147C852.767 61.121 853.724 57.59 854.978 54.554C856.232 51.518 858.047 49.142 860.423 47.426C862.865 45.644 866.264 44.753 870.62 44.753C876.428 44.753 881.279 46.931 885.173 51.287C889.133 55.577 891.113 62.012 891.113 70.592V147.02H898.34V149H861.116V147.02H867.353V81.68C867.353 75.014 867.221 69.305 866.957 64.553C866.759 59.801 866.264 56.171 865.472 53.663C864.68 51.089 863.459 49.802 861.809 49.802C860.291 49.802 858.872 51.056 857.552 53.564C856.232 56.006 855.143 59.009 854.285 62.573C853.427 66.137 852.965 69.503 852.899 72.671V147.02H859.136V149H823.298V147.02H829.139V81.68C829.139 71.648 828.842 63.827 828.248 58.217C827.654 52.607 826.07 49.802 823.496 49.802C822.044 49.802 820.724 51.122 819.536 53.762C818.348 56.402 817.358 59.471 816.566 62.969C815.84 66.401 815.444 69.371 815.378 71.879V147.02H821.516V149H784.391Z" fill="#8626E7" fill-opacity="0.2"/>
</g>
<defs>
<filter id="filter0_bii_418_135" x="-39.7753" y="-39.4333" width="978.049" height="278.065" filterUnits="userSpaceOnUse" color-interpolation-filters="sRGB">
<feFlood flood-opacity="0" result="BackgroundImageFix"/>
<feGaussianBlur in="BackgroundImageFix" stdDeviation="16.3727"/>
<feComposite in2="SourceAlpha" operator="in" result="effect1_backgroundBlur_418_135"/>
<feBlend mode="normal" in="SourceGraphic" in2="effect1_backgroundBlur_418_135" result="shape"/>
<feColorMatrix in="SourceAlpha" type="matrix" values="0 0 0 0 0 0 0 0 0 0 0 0 0 0 0 0 0 0 127 0" result="hardAlpha"/>
<feOffset dx="-39.9333" dy="39.9333"/>
<feGaussianBlur stdDeviation="19.9667"/>
<feComposite in2="hardAlpha" operator="arithmetic" k2="-1" k3="1"/>
<feColorMatrix type="matrix" values="0 0 0 0 1 0 0 0 0 1 0 0 0 0 1 0 0 0 0.2 0"/>
<feBlend mode="normal" in2="shape" result="effect2_innerShadow_418_135"/>
<feColorMatrix in="SourceAlpha" type="matrix" values="0 0 0 0 0 0 0 0 0 0 0 0 0 0 0 0 0 0 127 0" result="hardAlpha"/>
<feOffset dx="39.9333" dy="-39.9333"/>
<feGaussianBlur stdDeviation="19.9667"/>
<feComposite in2="hardAlpha" operator="arithmetic" k2="-1" k3="1"/>
<feColorMatrix type="matrix" values="0 0 0 0 0.400298 0 0 0 0 0.111911 0 0 0 0 0.688684 0 0 0 0.2 0"/>
<feBlend mode="normal" in2="effect2_innerShadow_418_135" result="effect3_innerShadow_418_135"/>
</filter>
</defs>
</svg>
